#!OML:ASF E:\Steps\Project 1\Capture day 1\Session 2\Subject.ASF
:FULLY-SPECIFIED
:DEGREES
392
root -0.350258 18.0604 20.5125 -155.844 7.30185 190.106
lowerback -21.8047 -3.65139 -9.59862
upperback 2.00443 -2.13489 -0.13284
thorax 15.0723 -1.69966 4.60618
lowerneck -4.95309 -11.4037 0.917696
upperneck 26.4571 -15.4066 2.79747
head 9.29651 -6.29258 -0.546458
rclavicle -1.82882e-014 -4.77083e-014
rhumerus -38.4846 -15.4556 -80.3974
rradius 35.2196
rwrist -3.60299
rhand -10.5215 -52.9196
rfingers 7.12502
rthumb 15.4814 -82.3197
lclavicle -1.82882e-014 -4.77083e-014
lhumerus -29.1416 -1.80494 67.9552
lradius 31.0862
lwrist 0.919667
lhand -22.5688 -12.8242
lfingers 7.12502
lthumb 3.85953 17.1206
rfemur -33.9203 5.73949 1.81496
rtibia 13.0748
rfoot -8.87204 -18.8258
rtoes -24.7574
lfemur -25.4344 -9.66783 -6.7491
ltibia 23.0314
lfoot -18.4193 12.3771
ltoes -33.5788
393
root -0.307854 18.0572 20.4921 -155.942 7.20859 190.323
lowerback -21.6427 -3.64661 -9.69383
upperback 1.9215 -2.13076 -0.091306
thorax 14.883 -1.69745 4.71614
lowerneck -5.0106 -11.4455 0.946328
upperneck 26.7248 -15.4438 2.70515
head 9.39222 -6.29312 -0.593959
rclavicle -1.27222e-014 3.18055e-015
rhumerus -38.7777 -15.4099 -80.2785
rradius 35.2041
rwrist -3.73183
rhand -10.7152 -52.8203
rfingers 7.12502
rthumb 15.2948 -82.2348
lclavicle -1.27222e-014 3.18055e-015
lhumerus -29.2976 -2.07996 67.7949
lradius 31.277
lwrist 0.910517
lhand -22.6682 -12.7848
lfingers 7.12502
lthumb 3.76355 17.1618
rfemur -33.6649 6.08786 1.18423
rtibia 12.4073
rfoot -8.46286 -19.1941
rtoes -23.4666
lfemur -25.3347 -9.66861 -6.37665
ltibia 23.3011
lfoot -18.704 12.3682
ltoes -33.595
394
root -0.264974 18.0524 20.4695 -156.036 7.03083 190.469
lowerback -21.2534 -3.69776 -9.91131
upperback 1.6557 -2.21101 0.0285353
thorax 14.3661 -1.72502 4.96674
lowerneck -4.84504 -11.5035 0.774108
upperneck 27.0306 -15.4416 2.5861
head 9.4743 -6.2941 -0.602876
rclavicle -1.66979e-014 -6.67916e-014
rhumerus -39.4184 -15.4136 -79.8904
rradius 35.2597
rwrist -3.65479
rhand -10.5556 -52.6779
rfingers 7.12502
rthumb 15.4486 -82.0806
lclavicle -1.66979e-014 -6.67916e-014
lhumerus -29.7628 -2.32483 67.7978
lradius 31.4713
lwrist 0.820196
lhand -22.7397 -12.5057
lfingers 7.12502
lthumb 3.69443 17.442
rfemur -33.3408 6.34091 0.517097
rtibia 11.7056
rfoot -8.03526 -19.8437
rtoes -22.3612
lfemur -25.2715 -9.71069 -6.06192
ltibia 23.5322
lfoot -18.9946 12.3244
ltoes -33.6846
395
root -0.221779 18.049 20.4487 -156.142 6.82676 190.611
lowerback -21.5418 -3.72766 -9.90246
upperback 1.84184 -2.20227 -0.0417303
thorax 14.7538 -1.73993 4.87167
lowerneck -4.58605 -11.5087 0.742802
upperneck 26.6855 -15.5182 2.94513
head 9.34113 -6.32235 -0.463149
rclavicle -8.74653e-015 -7.63333e-014
rhumerus -39.2523 -15.8033 -79.9454
rradius 35.2134
rwrist -3.34123
rhand -10.4886 -52.7812
rfingers 7.12502
rthumb 15.5131 -82.1789
lclavicle -8.74653e-015 -7.63333e-014
lhumerus -29.5959 -2.59889 67.5128
lradius 31.7546
lwrist 0.846706
lhand -22.7201 -12.3702
lfingers 7.12502
lthumb 3.71342 17.5772
rfemur -33.1024 6.54468 -0.0982784
rtibia 11.258
rfoot -7.61726 -20.5054
rtoes -22.1088
lfemur -25.202 -9.81101 -5.72633
ltibia 23.7893
lfoot -19.2559 12.2557
ltoes -32.7889
396
root -0.176033 18.0474 20.4301 -156.289 6.68655 190.802
lowerback -21.2958 -3.78792 -9.9142
upperback 1.68086 -2.30997 -0.0405142
thorax 14.4354 -1.76787 4.85246
lowerneck -3.9712 -11.4492 0.53766
upperneck 26.5401 -15.4018 3.1989
head 9.21508 -6.26865 -0.294054
rclavicle -1.19271e-014 5.40694e-014
rhumerus -39.6577 -15.6478 -79.9011
rradius 35.1784
rwrist -3.27546
rhand -10.4875 -53.1887
rfingers 7.12502
rthumb 15.5142 -82.5863
lclavicle -1.19271e-014 5.40694e-014
lhumerus -30.1592 -2.8801 67.2028
lradius 32.1396
lwrist 0.889168
lhand -22.9216 -12.3017
lfingers 7.12502
lthumb 3.5188 17.649
rfemur -32.8908 6.56991 -0.505356
rtibia 10.9039
rfoot -6.91623 -20.8575
rtoes -23.5362
lfemur -25.0117 -9.92297 -5.33149
ltibia 23.9981
lfoot -19.4463 12.2224
ltoes -31.756
397
root -0.127963 18.0429 20.4119 -156.364 6.54168 191.041
lowerback -21.4291 -4.00151 -9.96484
upperback 1.56324 -2.58649 0.103483
thorax 14.4306 -1.89805 4.95087
lowerneck -3.30604 -11.2657 0.023854
upperneck 26.5265 -15.0445 3.34472
head 9.1357 -6.13533 -0.0933462
rclavicle 1.66979e-014 1.90833e-014
rhumerus -40.0669 -15.0738 -79.821
rradius 35.2897
rwrist -3.44676
rhand -10.7569 -52.51
rfingers 7.12502
rthumb 15.2547 -81.9275
lclavicle 1.66979e-014 1.90833e-014
lhumerus -30.58 -2.58645 66.9296
lradius 32.2239
lwrist 0.780514
lhand -23.134 -12.3734
lfingers 7.12502
lthumb 3.31369 17.5806
rfemur -32.7685 6.63272 -0.872146
rtibia 10.5868
rfoot -6.74804 -21.2374
rtoes -22.3476
lfemur -24.9205 -10.0158 -4.86426
ltibia 24.2467
lfoot -19.7367 12.2443
ltoes -31.7914
398
root -0.076833 18.0356 20.393 -156.296 6.4842 191.28
lowerback -21.132 -3.77427 -10.0146
upperback 1.62904 -2.2966 0.0155371
thorax 14.2835 -1.76532 4.98442
lowerneck -4.70405 -11.4649 0.739662
upperneck 27.1798 -15.4727 3.04145
head 9.54913 -6.24052 -0.44441
rclavicle -2.94201e-014 -1.90833e-014
rhumerus -39.9879 -15.8831 -79.7848
rradius 35.4144
rwrist -3.37353
rhand -11.3367 -50.8109
rfingers 7.12502
rthumb 14.6962 -80.2701
lclavicle -2.94201e-014 -1.90833e-014
lhumerus -29.7408 -3.23631 66.718
lradius 32.18
lwrist 0.993153
lhand -23.0563 -12.5916
lfingers 7.12502
lthumb 3.38872 17.3612
rfemur -32.8814 6.95202 -1.3925
rtibia 10.3639
rfoot -7.02351 -21.8728
rtoes -19.2944
lfemur -24.9804 -9.91712 -4.38758
ltibia 24.5248
lfoot -20.0784 12.2862
ltoes -31.9957
